<svg width="25" height="26" viewBox="0 0 25 26" fill="none" xmlns="http://www.w3.org/2000/svg">
<path d="M14.8636 4.96727L1.30366 18.1968C0.743594 18.7564 0.362098 19.4695 0.207453 20.2459C0.052808 21.0223 0.131965 21.8272 0.434908 22.5586C0.737851 23.29 1.25096 23.9152 1.90931 24.3549C2.56765 24.7946 3.34164 25.0291 4.13332 25.0288C4.65596 25.0309 5.17386 24.9297 5.65722 24.7309C6.14057 24.5321 6.57983 24.2396 6.94973 23.8704L20.526 10.6256L14.8636 4.96727ZM16.1698 10.5991L13.5105 13.1942L12.1777 11.8614L14.8371 9.26631L16.1698 10.5991ZM4.79919 21.6934C4.62012 21.8652 4.38153 21.9612 4.13332 21.9612C3.88512 21.9612 3.64653 21.8652 3.46746 21.6934C3.29309 21.5191 3.19393 21.2835 3.19127 21.037C3.1886 20.7906 3.28263 20.5528 3.45319 20.3749L9.98842 13.9977L11.3212 15.3305L4.79919 21.6934ZM21.8852 16.5317L24.6048 17.8909L21.8852 19.2502L20.526 21.9697L19.1667 19.2502L16.4472 17.8909L19.1667 16.5317L20.526 13.8121L21.8852 16.5317ZM5.91066 5.9941L3.19112 4.63485L5.91066 3.27559L7.26991 0.556061L8.62917 3.27559L11.3487 4.63485L8.62917 5.9941L7.26991 8.71364L5.91066 5.9941ZM19.8458 5.31499L17.4669 4.125L19.8458 2.93501L21.0358 0.556061L22.2258 2.93501L24.6048 4.125L22.2258 5.31499L21.0358 7.69394L19.8458 5.31499Z" fill="#1151F8"/>
</svg>
